<svg xmlns="http://www.w3.org/2000/svg" width="31" height="30" fill="none"><path fill="#1AAB7B" d="m17.5826 9.26253 3.075-1.51251c.375-.1875.475-.67499.1875-.97499-1.1125-1.225-2.2375-2.25-3.1375-3.025-.4125-.35-1.025-.0625-1.025.475v4.475c0 .4625.4875.76249.9.5625ZM16.6826 24.675v2.0625c0 .375.3375.6875.7125.625 3.4125-.5625 6.2625-2.85 7.6125-5.925.2375-.525-.3375-1.05-.8625-.8l-7.1125 3.4875c-.2125.1-.35.3125-.35.55ZM14.8076 4.20003c0-.5375-.6125-.825-1.025-.4875-2.95 2.475-8.18752 7.68747-8.16252 13.66247 0 5.025 3.675 9.1875 8.47502 9.9875.375.0625.7125-.25.7125-.625V4.20003ZM17.5452 15.5875l6.6125-2.775c.3375-.15.5-.5375.3375-.8625-.4625-.9125-1-1.8-1.5875-2.62501-.175-.25-.5-.325-.775-.2l-5.1125 2.48751c-.2125.1-.35.325-.35.5625v2.8375c.0125.4375.4625.75.875.575ZM25.5326 17.8875c.2-.1.325-.2875.325-.5 0-.8-.1-1.5875-.275-2.3625-.0875-.375-.5-.575-.85-.425l-7.675 3.275c-.225.1-.375.325-.375.575v2.75c0 .4625.4875.7625.9.5625l7.375-3.5875.575-.2875Z"/></svg>