<svg xmlns="http://www.w3.org/2000/svg" width="31" height="30" fill="none"><path fill="#1AAB7B" d="M20.9827 2.5h-10.475c-4.55002 0-7.26252 2.7125-7.26252 7.2625V20.225c0 4.5625 2.7125 7.275 7.26252 7.275h10.4625c4.55 0 7.2625-2.7125 7.2625-7.2625V9.7625c.0125-4.55-2.7-7.2625-7.25-7.2625Zm-7.85 17.7375c0 .8-.65 1.45-1.4625 1.45-.8 0-1.45-.65-1.45-1.45v-4.075c0-.8.65-1.45 1.45-1.45.8125 0 1.4625.65 1.4625 1.45v4.075Zm8.1375 0c0 .8-.65 1.45-1.45 1.45-.8125 0-1.4625-.65-1.4625-1.45V9.7625c0-.8.65-1.45 1.4625-1.45.8 0 1.45.65 1.45 1.45v10.475Z"/></svg>