<svg xmlns="http://www.w3.org/2000/svg" width="31" height="30" fill="none"><path fill="#1AAB7B" d="m27.0452 16.6-1.15-1.125-9.6875 9.675 1.1625 1.1625c.975.975 1.9875 1.4625 2.9875 1.4625 1 0 2.0125-.4875 2.9875-1.4625l3.7-3.7c1.9875-2 1.9875-4.0125 0-6.0125ZM14.1077 3.66255c-1.9625-1.9625-4.025-1.9625-5.98751 0l-3.7125 3.7c-1.95 1.9625-1.95 4.02495 0 5.98745l1.15 1.15 9.68751-9.68745-1.1375-1.15ZM28.0077 4.92499c-1.6375 4.0875-5.375 9.42501-8.9375 12.91251-.5125-3.225-3.0875-5.75-6.3375-6.2 3.5-3.57501 8.875-7.36251 12.975-9.01251.725-.275 1.45-.0625 1.9.3875.475.475.7 1.1875.4 1.9125Z"/><path fill="#1AAB7B" d="M17.9702 18.8625c-.25.2125-.5.425-.75.625l-2.2375 1.7875c0-.0375-.0125-.0875-.0125-.1375-.175-1.3375-.8-2.575-1.8125-3.5875-1.025-1.025-2.3-1.65-3.7-1.825-.0375 0-.0875-.0125-.125-.0125l1.8125-2.2875c.175-.225.3625-.4375.5625-.6625l.85.1125c2.6875.375 4.85 2.4875 5.275 5.1625l.1375.825Z"/><path fill="#1AAB7B" d="M13.7827 22.025c0 1.375-.525 2.6875-1.525 3.675-.7625.775-1.7875 1.3-3.03751 1.45l-3.0625.3375c-1.675.1875-3.1125-1.25-2.925-2.9375l.3375-3.075c.3-2.7375 2.5875-4.4875 5.0125-4.5375.2375-.0125.5 0 .75.025 1.06251.1375 2.08751.625 2.95001 1.475.8375.8375 1.3125 1.825 1.45 2.8625.025.25.05.4875.05.725Z"/></svg>