<svg xmlns="http://www.w3.org/2000/svg" width="31" height="30" fill="none"><path fill="#1AAB7B" d="M26.4327 11.8h-1.375c-.1875 0-.375.0375-.55.0875l-6.2375-6.23751c.6-.775.55-1.8875-.1625-2.5875l-.975-.975c-.7375-.7375-2.0375-.7375-2.7875 0l-.975.975c-.7.7-.75 1.8125-.15 2.5875L6.98267 11.8875c-.175-.05-.3625-.0875-.55-.0875h-1.375c-1.0875 0-1.975.8875-1.975 1.975v1.375c0 1.0875.8875 1.975 1.975 1.975h1.375c1.0875 0 1.975-.8875 1.975-1.975v-1.375c0-.1875-.0375-.375-.0875-.55l6.23753-6.23751c.3375.2625.7625.4 1.1875.4.425 0 .85-.15 1.2-.4125l6.2375 6.23751c-.05.175-.0875.3625-.0875.55v1.375c0 1.0875.8875 1.975 1.975 1.975h1.375c1.0875 0 1.975-.8875 1.975-1.975v-1.375c-.025-1.0875-.9-1.9625-1.9875-1.9625Z"/><path fill="#1AAB7B" d="m20.4327 20.6875-2.05 1.8125h-5.325l-2.05-1.8125c-1.18752-.975-1.18752-1.725-.2875-2.875l3.6125-4.575c.25-.3125.5375-.525.8625-.6375.3375-.1125.7-.1125 1.05 0 .3125.1125.6.325.8625.6375l3.6125 4.575c.9 1.1375.8625 1.85-.2875 2.875ZM17.3577 27.5h-3.2375c-1.15 0-2.0125-.9375-1.7875-1.9375l.3875-1.7375c.075-.35.3875-.5875.7375-.5875h4.5625c.35 0 .65.2375.7375.5875l.3875 1.7375c.25 1.0625-.5625 1.9375-1.7875 1.9375Z"/></svg>