<svg xmlns="http://www.w3.org/2000/svg" width="31" height="30" fill="none"><path fill="#1AAB7B" d="m25.1702 8.175-3.8375-3.8375C20.1577 3.1625 18.5702 2.5 16.9077 2.5h-6.1625C6.99518 2.5 4.49518 5 4.49518 8.75v12.5c0 3.75 2.5 6.25 6.25002 6.25h10c3.75 0 6.25-2.5 6.25-6.25v-8.6625c0-1.6625-.6625-3.25-1.825-4.4125ZM13.2827 21.8375c.3625.3625.3625.9625 0 1.325-.1875.1875-.425.275-.6625.275s-.475-.0875-.6625-.275l-2.50002-2.5c-.3625-.3625-.3625-.9625 0-1.325l2.50002-2.5c.3625-.3625.9625-.3625 1.325 0 .3625.3625.3625.9625 0 1.325L11.4452 20l1.8375 1.8375Zm8.75-1.175-2.5 2.5c-.1875.1875-.425.275-.6625.275s-.475-.0875-.6625-.275c-.3625-.3625-.3625-.9625 0-1.325L20.0452 20l-1.8375-1.8375c-.3625-.3625-.3625-.9625 0-1.325.3625-.3625.9625-.3625 1.325 0l2.5 2.5c.3625.3625.3625.9625 0 1.325Z"/></svg>