<svg xmlns="http://www.w3.org/2000/svg" width="24" height="24" fill="none"><g fill="#fff" clip-path="url(#a)"><path d="M2.76739 1.00939c-.36647-.030783-.73535.01432-1.08364.13249-.3483.11817-.66855.30688-.940799.55437-.272251.24749-.490667.54846-.641638.88415-.1509709.33569-.231262.6989-.235868 1.06702-.004607.36811.0665682.73322.2090909 1.07259.1425231.33937.3533381.64572.6193101.89996.265971.25424.581404.45093.926624.5778.34523.12687.71286.1812 1.07999.15962h.03296c.36897.0326.74068-.01171 1.09168-.13013s.67367-.30839.94765-.55791c.27398-.24953.49332-.55319.64418-.89183.15085-.33864.22996-.7049.23231-1.07568.00236-.37078-.07209-.73802-.21863-1.07856-.14655-.34053-.36201-.64696-.6328-.89995-.27079-.25299-.59102-.44705-.94049-.56993-.34946-.12288-.72058-.171915-1.08993-.14401ZM.164062 8.47168H5.30371V23.9487H.164062V8.47168ZM17.9223 8.10742c-2.7721 0-4.6312 2.60798-4.6312 2.60798V8.47043H8.15149V23.9484h5.13961v-8.643c-.0199-.4254.0373-.851.1689-1.256.1924-.5473.549-1.0217 1.0211-1.3584.4721-.3367 1.0365-.5192 1.6161-.5226 1.8601 0 2.6033 1.419 2.6033 3.5v8.28h5.1387v-8.875c-.004-4.754-2.5394-6.96598-5.9169-6.96598Z"/></g><defs><clipPath id="a"><path fill="#fff" d="M0 0h24v24H0z"/></clipPath></defs></svg>