<svg xmlns="http://www.w3.org/2000/svg" width="24" height="24" fill="none"><path fill="#fff" d="M8.94368 21.6422c-1.06414-.0016-2.12656-.0859-3.17769-.252-1.52225-.2982-2.98871-.8322-4.34647-1.583L0 19.0292l1.5374-.506c1.68125-.553 2.70418-.9 3.96986-1.434-.64087-.3143-1.21144-.7554-1.67725-1.2966-.46581-.5413-.8172-1.1714-1.03292-1.8524l-.35763-1.087.29369.045c-.2496-.2521-.47347-.5285-.6683-.825-.59929-.8865-.9025-1.9402-.8661-3.01l.06693-.949.56741.22c-.24026-.45358-.41355-.93964-.51446-1.443-.24456-1.26378-.03771-2.57339.58439-3.7l.49448-.904.66131.8c1.95989 2.44019 4.78313 4.03126 7.88379 4.443-.1337-.84655-.0346-1.71356.2867-2.508.3889-.91483 1.0577-1.68263 1.91-2.193.999-.60561 2.159-.89103 3.3246-.818 1.2094.06324 2.361.53852 3.2635 1.347.407-.11013.8072-.24369 1.1988-.4.2617-.1.5594-.211.931-.339l1.3646-.471-.8931 2.552c.059 0 .1199-.009.1828-.012l1.4635-.064-.8641 1.183c-.0499.068-.0619.087-.0799.114-.0699.105-.1568.236-1.3426 1.822-.3047.42209-.4527.93737-.4186 1.457.1307 1.8793-.1249 3.7655-.7512 5.542-.5476 1.4944-1.4503 2.8329-2.6302 3.9-1.5641 1.3614-3.4635 2.2792-5.5013 2.658-1.1331.2313-2.287.3459-3.44342.342Z"/></svg>