<svg xmlns="http://www.w3.org/2000/svg" width="24" height="24" fill="none"><g clip-path="url(#a)"><path fill="#fff" d="M18.4096.009782h-3.1088c-3.4934 0-5.74602 2.317998-5.74602 5.905998v2.723H6.42404c-.06423 0-.12784.01268-.18717.03732-.05933.02464-.11323.06075-.1586.10626-.04537.04551-.08133.09954-.10582.15898a.4895032.4895032 0 0 0-.0369.18744v3.94602c0 .1297.05146.2541.14307.3458s.21586.1432.34542.1432h3.13074v9.956c0 .0642.01263.1278.03718.1871.02455.0593.06053.1133.10589.1587.04537.0454.09921.0814.15848.106.05927.0245.12279.0372.18697.0372h4.0787c.0642 0 .1277-.0127.187-.0372.0592-.0246.1131-.0606.1584-.106.0454-.0454.0814-.0994.1059-.1587.0246-.0593.0372-.1229.0372-.1871v-9.956h3.6552c.1296 0 .2538-.0515.3454-.1432.0916-.0917.1431-.2161.1431-.3458V9.12878c0-.12995-.0516-.25459-.1434-.34648-.0918-.09189-.2163-.14352-.3461-.14352h-3.6562v-2.308c0-1.11.2637-1.673 1.7082-1.673h2.0978c.1296 0 .2539-.05152.3455-.14322.0916-.09171.143-.21609.143-.34578V.503782c.0006-.065021-.0118-.129499-.0364-.189674-.0247-.060176-.061-.114846-.1069-.160825-.0459-.045978-.1006-.082346-.1607-.1069831-.0601-.024637-.1245-.0370508-.1894-.0365178Z"/></g><defs><clipPath id="a"><path fill="#fff" d="M0 0h24v24H0z"/></clipPath></defs></svg>