<svg xmlns="http://www.w3.org/2000/svg" width="24" height="24" fill="none"><g fill="#fff" clip-path="url(#a)"><path d="M11.9874 5.83594c-1.2163.00079-2.40508.36252-3.4161 1.03948-1.01101.67695-1.79885 1.63874-2.26396 2.7638-.4651 1.12508-.58659 2.36288-.3491 3.55708.23749 1.1941.82329 2.291 1.68337 3.152.86007.861 1.95581 1.4474 3.14869 1.6851 1.193.2378 2.4295.1161 3.5534-.3494 1.1239-.4656 2.0847-1.2543 2.7609-2.2664.6763-1.012 1.0376-2.2021 1.0384-3.4197.0007-.8094-.1581-1.6109-.4672-2.35883-.3091-.74791-.7625-1.42746-1.3342-1.99979-.5718-.57232-1.2506-1.02619-1.9977-1.33563-.7472-.30943-1.5479-.46837-2.3565-.46771Zm0 10.15496c-.7903 0-1.5628-.2346-2.21993-.6741-.65711-.4395-1.16927-1.0642-1.4717-1.7951-.30244-.7309-.38157-1.5352-.22739-2.3111.15418-.7759.53475-1.48868 1.09358-2.04809.55883-.55941 1.27084-.94037 2.04594-1.09471.7751-.15434 1.5785-.07513 2.3087.22762.7301.30275 1.3542.81544 1.7933 1.47324.439.65784.6734 1.43114.6734 2.22224 0 1.0609-.421 2.0783-1.1704 2.8285-.7493.7501-1.7657 1.1715-2.8255 1.1715Z"/><path d="M16.9306.075c-2.2057-.1-7.66902-.1-9.87672 0C5.18844.0415017 3.38355.737876 2.02312 2.016-.282479 4.324.0122145 7.434.0122145 11.999c0 4.668-.2597295 7.706 2.0109055 9.979 2.31459 2.311 5.4693 2.008 9.96458 2.008 4.6192 0 6.2136 0 7.8469-.63 2.2207-.863 3.8959-2.85 4.0607-6.419.0999-2.209.0999-7.677 0-9.887-.1998-4.213-2.4564-6.768-6.9687-6.976l.004.001Zm3.4914 20.371c-1.5115 1.513-3.6083 1.378-8.4592 1.378-4.99483 0-6.99275.074-8.45922-1.393-1.68325-1.677-1.37857-4.37-1.37857-8.453 0-5.525-.56641-9.5 4.97282-9.788 1.27268-.045 1.64729-.06 4.85097-.06l.0449.03c5.3235 0 9.5001-.558 9.7509 4.986.0569 1.265.0699 1.645.0699 4.847 0 4.942.0929 6.959-1.3925 8.453Z"/><path d="M18.3866 7.0323c.7939 0 1.4375-.64427 1.4375-1.439 0-.79474-.6436-1.439-1.4375-1.439s-1.4375.64426-1.4375 1.439c0 .79473.6436 1.439 1.4375 1.439Z"/></g><defs><clipPath id="a"><path fill="#fff" d="M0 0h24v24H0z"/></clipPath></defs></svg>